# Blender 5.1.1
# www.blender.org
mtllib Başlıksızz0065.mtl
o Cube
v 0.197111 1.941647 0.429330
v 0.210369 0.941275 0.024751
v 0.323923 1.747562 0.913385
v 0.337181 0.747190 0.508805
v -1.890339 1.287727 0.714005
v -0.747784 0.842995 0.236361
v -1.763527 1.093642 1.198060
v -0.620972 0.648910 0.720415
v -0.624691 0.929492 0.833891
v 0.333462 1.027772 0.622280
v -0.751503 1.123577 0.349836
v 0.206650 1.221857 0.138226
v -0.268708 0.892135 0.130556
v -0.719802 1.420602 1.055722
v -0.141895 0.698050 0.614610
v -0.846614 1.614687 0.571668
v 0.203759 1.439977 0.226440
v -1.190554 0.870616 0.958529
v 0.330572 1.245892 0.710495
v -1.317367 1.064702 0.474475
v -0.556804 1.252339 0.350457
v -0.429991 1.058254 0.834512
v 0.097643 0.722620 0.561708
v -0.324752 1.778167 0.500499
v -0.029169 0.916705 0.077653
v -0.197939 1.584082 0.984553
v -0.049710 1.152073 0.772503
v -0.176522 1.346159 0.288449
v -0.148939 0.904420 0.104105
v -0.458871 1.502342 1.020138
v -0.239851 1.105164 0.803508
v -0.022126 0.710335 0.588159
v -0.585683 1.696427 0.536084
v -0.366663 1.299249 0.319453
v -1.477041 0.982129 1.078294
v 0.200435 1.690812 0.327885
v 0.327247 1.496727 0.811940
v -1.603853 1.176214 0.594240
v -0.701709 1.433514 0.461063
v -0.574897 1.239428 0.945117
v -0.123825 1.368078 0.878528
v -0.250637 1.562163 0.394474
v -0.476173 1.497838 0.427768
v -0.349361 1.303753 0.911823
v -1.477041 0.982129 1.078294
v 0.200435 1.690812 0.327885
v 0.327247 1.496727 0.811940
v -1.603853 1.176214 0.594240
v -0.701709 1.433514 0.461063
v -0.574897 1.239428 0.945117
v -0.123825 1.368078 0.878528
v -0.250637 1.562163 0.394474
v -0.476173 1.497838 0.427768
v -0.391899 0.959352 1.643635
v -0.246994 0.778179 1.533030
v -0.056853 0.825088 1.502026
v -0.166363 1.023677 1.610341
v -0.372908 0.930287 1.716126
v -0.228003 0.749113 1.605521
v -0.037862 0.796022 1.574517
v -0.147372 0.994612 1.682832
v -0.313792 0.839810 1.941777
v -0.168887 0.658636 1.831172
v 0.021254 0.705546 1.800168
v -0.088256 0.904135 1.908483
v -0.228228 0.708855 2.268383
v -0.083323 0.527681 2.157778
v 0.106818 0.574591 2.126774
v -0.002692 0.773180 2.235089
vn -0.2207 0.8839 0.4122
vn 0.2363 -0.3616 0.9019
vn -0.4361 -0.8689 -0.2341
vn 0.0123 -0.9270 -0.3749
vn 0.9716 0.0997 -0.2146
vn -0.2363 0.3616 -0.9019
vn -0.0123 0.9270 0.3749
vn -0.2181 -0.9242 -0.3134
vn 0.8685 0.4948 -0.0291
vn -0.7914 -0.6102 -0.0373
vn 0.1568 -0.9018 -0.4027
vn -0.1941 0.8919 0.4085
vt 0.999428 0.678194
vt 0.833449 0.339097
vt 0.999428 0.339097
vt 0.594208 0.333132
vt 0.474004 0.575673
vt 0.528896 0.287837
vt 0.667470 0.000000
vt 0.833449 0.099130
vt 0.667470 0.099130
vt 0.833449 0.691646
vt 0.667470 0.617571
vt 0.833449 0.617571
vt 0.000000 0.666265
vt 0.165979 0.749946
vt 0.000000 0.749946
vt 0.297104 0.499699
vt 0.250054 0.666265
vt 0.222608 0.522347
vt 0.165979 0.666265
vt 0.331958 0.969450
vt 0.165979 0.969450
vt 0.140269 0.090592
vt 0.260473 0.333132
vt 0.195161 0.378428
vt 0.833449 0.543497
vt 0.667470 0.395348
vt 0.833449 0.395348
vt 0.612523 0.249849
vt 0.542619 0.215877
vt 0.999428 0.254323
vt 0.833449 0.254323
vt 0.472716 0.181905
vt 0.333735 0.152485
vt 0.333735 0.114364
vt 0.000000 0.361295
vt 0.129850 0.423724
vt 0.000000 0.513780
vt 0.000000 0.590023
vt 0.166373 0.666265
vt 0.000000 0.666265
vt 0.000000 0.833628
vt 0.165979 1.000000
vt 0.000000 1.000000
vt 0.667470 0.198260
vt 0.463585 0.242541
vt 0.333735 0.304969
vt 0.000000 0.551901
vt 0.148111 0.544995
vt 0.500108 0.000000
vt 0.333735 0.076242
vt 0.333735 0.000000
vt 0.999428 0.169549
vt 0.833449 0.000000
vt 0.999428 0.000000
vt 0.583789 0.000000
vt 0.630839 0.166566
vt 0.556343 0.143918
vt 0.208884 0.450387
vt 0.667470 0.580534
vt 0.833449 0.580534
vt 0.667470 0.543497
vt 0.278788 0.416416
vt 0.138981 0.484359
vt 0.481846 0.121270
vt 0.833449 0.169549
vt 0.093327 0.181184
vt 0.165979 0.833628
vt 0.833449 0.198260
vt 0.427063 0.485081
vt 0.833449 0.678194
vt 0.520945 0.666265
vt 0.833449 0.000000
vt 0.667470 0.691646
vt 0.165979 0.666265
vt 0.333735 0.666265
vt 0.331958 0.666265
vt 0.187210 0.000000
vt 0.667470 -0.000000
s 1
usemtl Material.001
f 5/1/1 14/2/1 16/3/1
f 14/4/2 35/5/2 40/6/2
f 7/7/3 38/8/3 35/9/3
f 2/10/4 23/11/4 25/12/4
f 1/13/5 37/14/5 36/15/5
f 24/16/6 36/17/6 42/18/6
f 10/19/7 11/20/7 9/21/7
f 38/22/6 16/23/6 39/24/6
f 13/25/4 8/26/8 6/27/8
f 30/28/2 40/6/2 44/29/2
f 33/30/1 14/2/1 30/31/1
f 31/32/2 15/33/2 32/34/2
f 6/35/6 21/36/6 13/37/6
f 25/38/6 17/39/6 2/40/6
f 17/41/5 4/42/5 2/43/5
f 18/44/3 6/27/8 8/26/8
f 22/45/2 8/46/2 15/33/2
f 29/47/6 28/48/6 25/38/6
f 19/49/2 23/50/2 4/51/2
f 24/52/1 3/53/1 1/54/1
f 37/55/2 26/56/2 41/57/2
f 43/58/6 24/16/6 42/18/6
f 25/12/4 32/59/4 29/60/4
f 29/60/4 15/61/4 13/25/4
f 39/24/6 33/62/6 43/58/6
f 13/37/6 34/63/6 29/47/6
f 27/64/2 32/34/2 23/50/2
f 24/52/1 30/31/1 26/65/1
f 26/56/2 44/29/2 41/57/2
f 41/57/2 31/32/2 27/64/2
f 21/36/6 43/58/6 34/63/6
f 34/63/6 42/18/6 28/48/6
f 19/49/2 41/57/2 27/64/2
f 44/29/9 56/32/9 31/32/9
f 20/66/6 39/24/6 21/36/6
f 42/18/6 17/39/6 28/48/6
f 36/15/5 19/67/5 17/41/5
f 35/9/3 20/68/3 18/44/3
f 40/6/2 18/69/2 22/45/2
f 42/18/7 53/58/7 52/18/7
f 35/5/7 50/6/7 45/5/7
f 37/14/7 46/15/7 47/14/7
f 39/24/7 48/22/7 49/24/7
f 41/57/7 47/55/7 51/57/7
f 43/58/7 49/24/7 53/58/7
f 38/8/7 45/9/7 48/8/7
f 36/17/7 52/18/7 46/17/7
f 57/29/9 60/32/9 56/32/9
f 22/45/10 54/6/10 40/6/10
f 31/32/11 55/45/11 22/45/11
f 40/6/12 57/29/12 44/29/12
f 59/45/10 62/6/10 58/6/10
f 55/45/10 58/6/10 54/6/10
f 54/6/12 61/29/12 57/29/12
f 56/32/11 59/45/11 55/45/11
f 62/6/12 69/29/12 65/29/12
f 58/6/12 65/29/12 61/29/12
f 60/32/11 63/45/11 59/45/11
f 61/29/9 64/32/9 60/32/9
f 69/29/2 67/45/2 68/32/2
f 64/32/11 67/45/11 63/45/11
f 65/29/9 68/32/9 64/32/9
f 63/45/10 66/6/10 62/6/10
f 5/1/1 7/70/1 14/2/1
f 14/4/2 7/71/2 35/5/2
f 7/7/3 5/72/3 38/8/3
f 2/10/4 4/73/4 23/11/4
f 1/13/5 3/74/5 37/14/5
f 24/16/6 1/75/6 36/17/6
f 10/19/7 12/76/7 11/20/7
f 38/22/6 5/77/6 16/23/6
f 13/25/4 15/61/4 8/26/8
f 30/28/2 14/4/2 40/6/2
f 33/30/1 16/3/1 14/2/1
f 31/32/2 22/45/2 15/33/2
f 6/35/6 20/66/6 21/36/6
f 25/38/6 28/48/6 17/39/6
f 17/41/5 19/67/5 4/42/5
f 18/44/3 20/68/3 6/27/8
f 22/45/2 18/69/2 8/46/2
f 29/47/6 34/63/6 28/48/6
f 19/49/2 27/64/2 23/50/2
f 24/52/1 26/65/1 3/53/1
f 37/55/2 3/78/2 26/56/2
f 43/58/6 33/62/6 24/16/6
f 25/12/4 23/11/4 32/59/4
f 29/60/4 32/59/4 15/61/4
f 39/24/6 16/23/6 33/62/6
f 13/37/6 21/36/6 34/63/6
f 27/64/2 31/32/2 32/34/2
f 24/52/1 33/30/1 30/31/1
f 26/56/2 30/28/2 44/29/2
f 41/57/2 44/29/2 31/32/2
f 21/36/6 39/24/6 43/58/6
f 34/63/6 43/58/6 42/18/6
f 19/49/2 37/55/2 41/57/2
f 44/29/9 57/29/9 56/32/9
f 20/66/6 38/22/6 39/24/6
f 42/18/6 36/17/6 17/39/6
f 36/15/5 37/14/5 19/67/5
f 35/9/3 38/8/3 20/68/3
f 40/6/2 35/5/2 18/69/2
f 42/18/7 43/58/7 53/58/7
f 35/5/7 40/6/7 50/6/7
f 37/14/7 36/15/7 46/15/7
f 39/24/7 38/22/7 48/22/7
f 41/57/7 37/55/7 47/55/7
f 43/58/7 39/24/7 49/24/7
f 38/8/7 35/9/7 45/9/7
f 36/17/7 42/18/7 52/18/7
f 57/29/9 61/29/9 60/32/9
f 22/45/10 55/45/10 54/6/10
f 31/32/11 56/32/11 55/45/11
f 40/6/12 54/6/12 57/29/12
f 59/45/10 63/45/10 62/6/10
f 55/45/10 59/45/10 58/6/10
f 54/6/12 58/6/12 61/29/12
f 56/32/11 60/32/11 59/45/11
f 62/6/12 66/6/12 69/29/12
f 58/6/12 62/6/12 65/29/12
f 60/32/11 64/32/11 63/45/11
f 61/29/9 65/29/9 64/32/9
f 69/29/2 66/6/2 67/45/2
f 64/32/11 68/32/11 67/45/11
f 65/29/9 69/29/9 68/32/9
f 63/45/10 67/45/10 66/6/10
