# Blender 5.1.1
# www.blender.org
mtllib Başlıksızz0055.mtl
o Cube
v -0.055101 1.780543 -0.905428
v 0.154302 0.789904 -0.532080
v -0.137321 1.952281 -0.403626
v 0.072082 0.961641 -0.030278
v -2.050725 0.840569 -0.910712
v -0.801238 0.558733 -0.609528
v -2.132946 1.012306 -0.408911
v -0.883458 0.730470 -0.107727
v -0.942191 1.008322 -0.212442
v 0.013349 1.239493 -0.134994
v -0.859971 0.836585 -0.714244
v 0.095569 1.067756 -0.636796
v -0.323468 0.674318 -0.570804
v -1.135133 1.482294 -0.406268
v -0.405688 0.846056 -0.069002
v -1.052913 1.310556 -0.908070
v 0.049911 1.283754 -0.718200
v -1.506348 0.870970 -0.257872
v -0.032309 1.455492 -0.216398
v -1.424128 0.699233 -0.759674
v -0.687108 0.991493 -0.738937
v -0.769328 1.163231 -0.237135
v -0.166803 0.903849 -0.049640
v -0.554007 1.545550 -0.906749
v -0.084583 0.732111 -0.551442
v -0.636227 1.717287 -0.404947
v -0.400819 1.309361 -0.226767
v -0.318598 1.137624 -0.728569
v -0.204025 0.703215 -0.561123
v -0.885680 1.599790 -0.405608
v -0.585073 1.236296 -0.231951
v -0.286245 0.874952 -0.059321
v -0.803460 1.428053 -0.907410
v -0.502853 1.064559 -0.733753
v -1.819647 0.941638 -0.333391
v -0.002595 1.532149 -0.811814
v -0.084815 1.703886 -0.310012
v -1.737427 0.769901 -0.835193
v -0.870011 1.151025 -0.823504
v -0.952231 1.322762 -0.321702
v -0.518523 1.513324 -0.315857
v -0.436303 1.341587 -0.817659
v -0.653157 1.246306 -0.820581
v -0.735377 1.418043 -0.318779
v -1.819647 0.941638 -0.333391
v -0.002595 1.532149 -0.811814
v -0.084815 1.703886 -0.310012
v -1.737427 0.769901 -0.835193
v -0.870011 1.151025 -0.823504
v -0.952231 1.322762 -0.321702
v -0.518523 1.513324 -0.315857
v -0.436303 1.341587 -0.817659
v -0.653157 1.246306 -0.820581
v -1.070879 1.570589 0.402427
v -0.887977 1.411058 0.486994
v -0.703722 1.484123 0.492178
v -0.854025 1.665870 0.405349
v -1.083192 1.596308 0.477576
v -0.900290 1.436777 0.562143
v -0.716035 1.509842 0.567327
v -0.866338 1.691589 0.480498
v -1.121520 1.676367 0.711500
v -0.938618 1.516835 0.796067
v -0.754363 1.589900 0.801251
v -0.904666 1.771648 0.714423
v -1.176997 1.792243 1.050081
v -0.994094 1.632712 1.134648
v -0.809839 1.705777 1.139832
v -0.960143 1.887524 1.053004
vn -0.3976 0.8462 -0.3548
vn -0.1532 0.3200 0.9350
vn -0.2735 -0.9229 0.2710
vn 0.1940 -0.9180 0.3460
vn 0.9690 0.2344 0.0785
vn 0.1532 -0.3200 -0.9350
vn -0.1940 0.9180 -0.3460
vn -0.0409 -0.9474 0.3175
vn 0.7867 0.6121 -0.0806
vn -0.6856 -0.7158 0.1326
vn 0.3362 -0.8728 0.3538
vn -0.3721 0.8578 -0.3545
vt 0.999428 0.678194
vt 0.833449 0.339097
vt 0.999428 0.339097
vt 0.594208 0.333132
vt 0.474004 0.575673
vt 0.528896 0.287837
vt 0.667470 0.000000
vt 0.833449 0.099130
vt 0.667470 0.099130
vt 0.833449 0.691646
vt 0.667470 0.617571
vt 0.833449 0.617571
vt 0.000000 0.666265
vt 0.165979 0.749946
vt 0.000000 0.749946
vt 0.297104 0.499699
vt 0.250054 0.666265
vt 0.222608 0.522347
vt 0.165979 0.666265
vt 0.331958 0.969450
vt 0.165979 0.969450
vt 0.140269 0.090592
vt 0.260473 0.333132
vt 0.195161 0.378428
vt 0.833449 0.543497
vt 0.667470 0.395348
vt 0.833449 0.395348
vt 0.612523 0.249849
vt 0.542619 0.215877
vt 0.999428 0.254323
vt 0.833449 0.254323
vt 0.472716 0.181905
vt 0.333735 0.152485
vt 0.333735 0.114364
vt 0.000000 0.361295
vt 0.129850 0.423724
vt 0.000000 0.513780
vt 0.000000 0.590023
vt 0.166373 0.666265
vt 0.000000 0.666265
vt 0.000000 0.833628
vt 0.165979 1.000000
vt 0.000000 1.000000
vt 0.667470 0.198260
vt 0.463585 0.242541
vt 0.333735 0.304969
vt 0.000000 0.551901
vt 0.148111 0.544995
vt 0.500108 0.000000
vt 0.333735 0.076242
vt 0.333735 0.000000
vt 0.999428 0.169549
vt 0.833449 0.000000
vt 0.999428 0.000000
vt 0.583789 0.000000
vt 0.630839 0.166566
vt 0.556343 0.143918
vt 0.208884 0.450387
vt 0.667470 0.580534
vt 0.833449 0.580534
vt 0.667470 0.543497
vt 0.278788 0.416416
vt 0.138981 0.484359
vt 0.481846 0.121270
vt 0.833449 0.169549
vt 0.093327 0.181184
vt 0.165979 0.833628
vt 0.833449 0.198260
vt 0.427063 0.485081
vt 0.833449 0.678194
vt 0.520945 0.666265
vt 0.833449 0.000000
vt 0.667470 0.691646
vt 0.165979 0.666265
vt 0.333735 0.666265
vt 0.331958 0.666265
vt 0.187210 0.000000
vt 0.667470 -0.000000
s 1
usemtl Material.001
f 5/1/1 14/2/1 16/3/1
f 14/4/2 35/5/2 40/6/2
f 7/7/3 38/8/3 35/9/3
f 2/10/4 23/11/4 25/12/4
f 1/13/5 37/14/5 36/15/5
f 24/16/6 36/17/6 42/18/6
f 10/19/7 11/20/7 9/21/7
f 38/22/6 16/23/6 39/24/6
f 13/25/4 8/26/8 6/27/8
f 30/28/2 40/6/2 44/29/2
f 33/30/1 14/2/1 30/31/1
f 31/32/2 15/33/2 32/34/2
f 6/35/6 21/36/6 13/37/6
f 25/38/6 17/39/6 2/40/6
f 17/41/5 4/42/5 2/43/5
f 18/44/3 6/27/8 8/26/8
f 22/45/2 8/46/2 15/33/2
f 29/47/6 28/48/6 25/38/6
f 19/49/2 23/50/2 4/51/2
f 24/52/1 3/53/1 1/54/1
f 37/55/2 26/56/2 41/57/2
f 43/58/6 24/16/6 42/18/6
f 25/12/4 32/59/4 29/60/4
f 29/60/4 15/61/4 13/25/4
f 39/24/6 33/62/6 43/58/6
f 13/37/6 34/63/6 29/47/6
f 27/64/2 32/34/2 23/50/2
f 24/52/1 30/31/1 26/65/1
f 26/56/2 44/29/2 41/57/2
f 41/57/2 31/32/2 27/64/2
f 21/36/6 43/58/6 34/63/6
f 34/63/6 42/18/6 28/48/6
f 19/49/2 41/57/2 27/64/2
f 44/29/9 56/32/9 31/32/9
f 20/66/6 39/24/6 21/36/6
f 42/18/6 17/39/6 28/48/6
f 36/15/5 19/67/5 17/41/5
f 35/9/3 20/68/3 18/44/3
f 40/6/2 18/69/2 22/45/2
f 42/18/7 53/58/7 52/18/7
f 35/5/7 50/6/7 45/5/7
f 37/14/7 46/15/7 47/14/7
f 39/24/7 48/22/7 49/24/7
f 41/57/7 47/55/7 51/57/7
f 43/58/7 49/24/7 53/58/7
f 38/8/7 45/9/7 48/8/7
f 36/17/7 52/18/7 46/17/7
f 57/29/9 60/32/9 56/32/9
f 22/45/10 54/6/10 40/6/10
f 31/32/11 55/45/11 22/45/11
f 40/6/12 57/29/12 44/29/12
f 59/45/10 62/6/10 58/6/10
f 55/45/10 58/6/10 54/6/10
f 54/6/12 61/29/12 57/29/12
f 56/32/11 59/45/11 55/45/11
f 62/6/12 69/29/12 65/29/12
f 58/6/12 65/29/12 61/29/12
f 60/32/11 63/45/11 59/45/11
f 61/29/9 64/32/9 60/32/9
f 69/29/2 67/45/2 68/32/2
f 64/32/11 67/45/11 63/45/11
f 65/29/9 68/32/9 64/32/9
f 63/45/10 66/6/10 62/6/10
f 5/1/1 7/70/1 14/2/1
f 14/4/2 7/71/2 35/5/2
f 7/7/3 5/72/3 38/8/3
f 2/10/4 4/73/4 23/11/4
f 1/13/5 3/74/5 37/14/5
f 24/16/6 1/75/6 36/17/6
f 10/19/7 12/76/7 11/20/7
f 38/22/6 5/77/6 16/23/6
f 13/25/4 15/61/4 8/26/8
f 30/28/2 14/4/2 40/6/2
f 33/30/1 16/3/1 14/2/1
f 31/32/2 22/45/2 15/33/2
f 6/35/6 20/66/6 21/36/6
f 25/38/6 28/48/6 17/39/6
f 17/41/5 19/67/5 4/42/5
f 18/44/3 20/68/3 6/27/8
f 22/45/2 18/69/2 8/46/2
f 29/47/6 34/63/6 28/48/6
f 19/49/2 27/64/2 23/50/2
f 24/52/1 26/65/1 3/53/1
f 37/55/2 3/78/2 26/56/2
f 43/58/6 33/62/6 24/16/6
f 25/12/4 23/11/4 32/59/4
f 29/60/4 32/59/4 15/61/4
f 39/24/6 16/23/6 33/62/6
f 13/37/6 21/36/6 34/63/6
f 27/64/2 31/32/2 32/34/2
f 24/52/1 33/30/1 30/31/1
f 26/56/2 30/28/2 44/29/2
f 41/57/2 44/29/2 31/32/2
f 21/36/6 39/24/6 43/58/6
f 34/63/6 43/58/6 42/18/6
f 19/49/2 37/55/2 41/57/2
f 44/29/9 57/29/9 56/32/9
f 20/66/6 38/22/6 39/24/6
f 42/18/6 36/17/6 17/39/6
f 36/15/5 37/14/5 19/67/5
f 35/9/3 38/8/3 20/68/3
f 40/6/2 35/5/2 18/69/2
f 42/18/7 43/58/7 53/58/7
f 35/5/7 40/6/7 50/6/7
f 37/14/7 36/15/7 46/15/7
f 39/24/7 38/22/7 48/22/7
f 41/57/7 37/55/7 47/55/7
f 43/58/7 39/24/7 49/24/7
f 38/8/7 35/9/7 45/9/7
f 36/17/7 42/18/7 52/18/7
f 57/29/9 61/29/9 60/32/9
f 22/45/10 55/45/10 54/6/10
f 31/32/11 56/32/11 55/45/11
f 40/6/12 54/6/12 57/29/12
f 59/45/10 63/45/10 62/6/10
f 55/45/10 59/45/10 58/6/10
f 54/6/12 58/6/12 61/29/12
f 56/32/11 60/32/11 59/45/11
f 62/6/12 66/6/12 69/29/12
f 58/6/12 62/6/12 65/29/12
f 60/32/11 64/32/11 63/45/11
f 61/29/9 65/29/9 64/32/9
f 69/29/2 66/6/2 67/45/2
f 64/32/11 68/32/11 67/45/11
f 65/29/9 69/29/9 68/32/9
f 63/45/10 67/45/10 66/6/10
