# Blender 5.1.1
# www.blender.org
mtllib Başlıksızz0052.mtl
o Cube
v 0.066440 1.567190 -1.238011
v 0.224267 0.674754 -0.652134
v -0.083309 1.831271 -0.795410
v 0.074518 0.938834 -0.209533
v -1.909014 0.589193 -1.322855
v -0.711676 0.406442 -0.808710
v -2.058763 0.853273 -0.880254
v -0.861424 0.670523 -0.366109
v -0.905691 0.920832 -0.530434
v 0.030251 1.189143 -0.373859
v -0.755942 0.656751 -0.973035
v 0.180000 0.925062 -0.816459
v -0.243704 0.540598 -0.730422
v -1.071036 1.342272 -0.837832
v -0.393453 0.804679 -0.287821
v -0.921287 1.078192 -1.280433
v 0.145588 1.119648 -0.944204
v -1.458317 0.761627 -0.622418
v -0.004161 1.383729 -0.501603
v -1.308569 0.497546 -1.065019
v -0.581490 0.808597 -1.004611
v -0.731239 1.072678 -0.562011
v -0.159468 0.871756 -0.248677
v -0.427423 1.322691 -1.259222
v -0.009719 0.607676 -0.691278
v -0.577172 1.586772 -0.816621
v -0.367700 1.228203 -0.531807
v -0.217951 0.964123 -0.974408
v -0.126712 0.574137 -0.710850
v -0.824104 1.464522 -0.827227
v -0.549470 1.150441 -0.546909
v -0.276460 0.838218 -0.268249
v -0.674355 1.200441 -1.269827
v -0.399721 0.886360 -0.989510
v -1.758540 0.807450 -0.751336
v 0.106014 1.343419 -1.091107
v -0.043735 1.607500 -0.648506
v -1.608791 0.543370 -1.193937
v -0.751389 0.943394 -1.142522
v -0.901138 1.207475 -0.699921
v -0.472436 1.407488 -0.674214
v -0.322687 1.143407 -1.116815
v -0.537038 1.043401 -1.129668
v -0.686787 1.307481 -0.687068
v -1.758540 0.807450 -0.751336
v 0.106014 1.343419 -1.091107
v -0.043735 1.607500 -0.648506
v -1.608791 0.543370 -1.193937
v -0.751389 0.943394 -1.142522
v -0.901138 1.207475 -0.699921
v -0.472436 1.407488 -0.674214
v -0.322687 1.143407 -1.116815
v -0.537038 1.043401 -1.129668
v -1.117234 1.588559 -0.061223
v -0.947336 1.453762 0.076688
v -0.765566 1.531524 0.091790
v -0.902883 1.688565 -0.048369
v -1.139660 1.628107 0.005060
v -0.969762 1.493310 0.142971
v -0.787992 1.571073 0.158073
v -0.925309 1.728113 0.017914
v -1.209468 1.751213 0.211387
v -1.039570 1.616416 0.349298
v -0.857800 1.694179 0.364400
v -0.995117 1.851219 0.224241
v -1.310508 1.929396 0.510023
v -1.140610 1.794599 0.647934
v -0.958840 1.872362 0.663036
v -1.096158 2.029403 0.522877
vn -0.3467 0.7492 -0.5643
vn -0.2790 0.4920 0.8247
vn -0.3068 -0.8594 0.4090
vn 0.1462 -0.8270 0.5429
vn 0.9491 0.2721 0.1588
vn 0.2790 -0.4920 -0.8247
vn -0.1462 0.8270 -0.5429
vn -0.0826 -0.8679 0.4899
vn 0.7897 0.6062 -0.0945
vn -0.6965 -0.6949 0.1789
vn 0.2859 -0.7772 0.5605
vn -0.3215 0.7614 -0.5630
vt 0.999428 0.678194
vt 0.833449 0.339097
vt 0.999428 0.339097
vt 0.594208 0.333132
vt 0.474004 0.575673
vt 0.528896 0.287837
vt 0.667470 0.000000
vt 0.833449 0.099130
vt 0.667470 0.099130
vt 0.833449 0.691646
vt 0.667470 0.617571
vt 0.833449 0.617571
vt 0.000000 0.666265
vt 0.165979 0.749946
vt 0.000000 0.749946
vt 0.297104 0.499699
vt 0.250054 0.666265
vt 0.222608 0.522347
vt 0.165979 0.666265
vt 0.331958 0.969450
vt 0.165979 0.969450
vt 0.140269 0.090592
vt 0.260473 0.333132
vt 0.195161 0.378428
vt 0.833449 0.543497
vt 0.667470 0.395348
vt 0.833449 0.395348
vt 0.612523 0.249849
vt 0.542619 0.215877
vt 0.999428 0.254323
vt 0.833449 0.254323
vt 0.472716 0.181905
vt 0.333735 0.152485
vt 0.333735 0.114364
vt 0.000000 0.361295
vt 0.129850 0.423724
vt 0.000000 0.513780
vt 0.000000 0.590023
vt 0.166373 0.666265
vt 0.000000 0.666265
vt 0.000000 0.833628
vt 0.165979 1.000000
vt 0.000000 1.000000
vt 0.667470 0.198260
vt 0.463585 0.242541
vt 0.333735 0.304969
vt 0.000000 0.551901
vt 0.148111 0.544995
vt 0.500108 0.000000
vt 0.333735 0.076242
vt 0.333735 0.000000
vt 0.999428 0.169549
vt 0.833449 0.000000
vt 0.999428 0.000000
vt 0.583789 0.000000
vt 0.630839 0.166566
vt 0.556343 0.143918
vt 0.208884 0.450387
vt 0.667470 0.580534
vt 0.833449 0.580534
vt 0.667470 0.543497
vt 0.278788 0.416416
vt 0.138981 0.484359
vt 0.481846 0.121270
vt 0.833449 0.169549
vt 0.093327 0.181184
vt 0.165979 0.833628
vt 0.833449 0.198260
vt 0.427063 0.485081
vt 0.833449 0.678194
vt 0.520945 0.666265
vt 0.833449 0.000000
vt 0.667470 0.691646
vt 0.165979 0.666265
vt 0.333735 0.666265
vt 0.331958 0.666265
vt 0.187210 0.000000
vt 0.667470 -0.000000
s 1
usemtl Material.001
f 5/1/1 14/2/1 16/3/1
f 14/4/2 35/5/2 40/6/2
f 7/7/3 38/8/3 35/9/3
f 2/10/4 23/11/4 25/12/4
f 1/13/5 37/14/5 36/15/5
f 24/16/6 36/17/6 42/18/6
f 10/19/7 11/20/7 9/21/7
f 38/22/6 16/23/6 39/24/6
f 13/25/4 8/26/8 6/27/8
f 30/28/2 40/6/2 44/29/2
f 33/30/1 14/2/1 30/31/1
f 31/32/2 15/33/2 32/34/2
f 6/35/6 21/36/6 13/37/6
f 25/38/6 17/39/6 2/40/6
f 17/41/5 4/42/5 2/43/5
f 18/44/3 6/27/8 8/26/8
f 22/45/2 8/46/2 15/33/2
f 29/47/6 28/48/6 25/38/6
f 19/49/2 23/50/2 4/51/2
f 24/52/1 3/53/1 1/54/1
f 37/55/2 26/56/2 41/57/2
f 43/58/6 24/16/6 42/18/6
f 25/12/4 32/59/4 29/60/4
f 29/60/4 15/61/4 13/25/4
f 39/24/6 33/62/6 43/58/6
f 13/37/6 34/63/6 29/47/6
f 27/64/2 32/34/2 23/50/2
f 24/52/1 30/31/1 26/65/1
f 26/56/2 44/29/2 41/57/2
f 41/57/2 31/32/2 27/64/2
f 21/36/6 43/58/6 34/63/6
f 34/63/6 42/18/6 28/48/6
f 19/49/2 41/57/2 27/64/2
f 44/29/9 56/32/9 31/32/9
f 20/66/6 39/24/6 21/36/6
f 42/18/6 17/39/6 28/48/6
f 36/15/5 19/67/5 17/41/5
f 35/9/3 20/68/3 18/44/3
f 40/6/2 18/69/2 22/45/2
f 42/18/7 53/58/7 52/18/7
f 35/5/7 50/6/7 45/5/7
f 37/14/7 46/15/7 47/14/7
f 39/24/7 48/22/7 49/24/7
f 41/57/7 47/55/7 51/57/7
f 43/58/7 49/24/7 53/58/7
f 38/8/7 45/9/7 48/8/7
f 36/17/7 52/18/7 46/17/7
f 57/29/9 60/32/9 56/32/9
f 22/45/10 54/6/10 40/6/10
f 31/32/11 55/45/11 22/45/11
f 40/6/12 57/29/12 44/29/12
f 59/45/10 62/6/10 58/6/10
f 55/45/10 58/6/10 54/6/10
f 54/6/12 61/29/12 57/29/12
f 56/32/11 59/45/11 55/45/11
f 62/6/12 69/29/12 65/29/12
f 58/6/12 65/29/12 61/29/12
f 60/32/11 63/45/11 59/45/11
f 61/29/9 64/32/9 60/32/9
f 69/29/2 67/45/2 68/32/2
f 64/32/11 67/45/11 63/45/11
f 65/29/9 68/32/9 64/32/9
f 63/45/10 66/6/10 62/6/10
f 5/1/1 7/70/1 14/2/1
f 14/4/2 7/71/2 35/5/2
f 7/7/3 5/72/3 38/8/3
f 2/10/4 4/73/4 23/11/4
f 1/13/5 3/74/5 37/14/5
f 24/16/6 1/75/6 36/17/6
f 10/19/7 12/76/7 11/20/7
f 38/22/6 5/77/6 16/23/6
f 13/25/4 15/61/4 8/26/8
f 30/28/2 14/4/2 40/6/2
f 33/30/1 16/3/1 14/2/1
f 31/32/2 22/45/2 15/33/2
f 6/35/6 20/66/6 21/36/6
f 25/38/6 28/48/6 17/39/6
f 17/41/5 19/67/5 4/42/5
f 18/44/3 20/68/3 6/27/8
f 22/45/2 18/69/2 8/46/2
f 29/47/6 34/63/6 28/48/6
f 19/49/2 27/64/2 23/50/2
f 24/52/1 26/65/1 3/53/1
f 37/55/2 3/78/2 26/56/2
f 43/58/6 33/62/6 24/16/6
f 25/12/4 23/11/4 32/59/4
f 29/60/4 32/59/4 15/61/4
f 39/24/6 16/23/6 33/62/6
f 13/37/6 21/36/6 34/63/6
f 27/64/2 31/32/2 32/34/2
f 24/52/1 33/30/1 30/31/1
f 26/56/2 30/28/2 44/29/2
f 41/57/2 44/29/2 31/32/2
f 21/36/6 39/24/6 43/58/6
f 34/63/6 43/58/6 42/18/6
f 19/49/2 37/55/2 41/57/2
f 44/29/9 57/29/9 56/32/9
f 20/66/6 38/22/6 39/24/6
f 42/18/6 36/17/6 17/39/6
f 36/15/5 37/14/5 19/67/5
f 35/9/3 38/8/3 20/68/3
f 40/6/2 35/5/2 18/69/2
f 42/18/7 43/58/7 53/58/7
f 35/5/7 40/6/7 50/6/7
f 37/14/7 36/15/7 46/15/7
f 39/24/7 38/22/7 48/22/7
f 41/57/7 37/55/7 47/55/7
f 43/58/7 39/24/7 49/24/7
f 38/8/7 35/9/7 45/9/7
f 36/17/7 42/18/7 52/18/7
f 57/29/9 61/29/9 60/32/9
f 22/45/10 55/45/10 54/6/10
f 31/32/11 56/32/11 55/45/11
f 40/6/12 54/6/12 57/29/12
f 59/45/10 63/45/10 62/6/10
f 55/45/10 59/45/10 58/6/10
f 54/6/12 58/6/12 61/29/12
f 56/32/11 60/32/11 59/45/11
f 62/6/12 66/6/12 69/29/12
f 58/6/12 62/6/12 65/29/12
f 60/32/11 64/32/11 63/45/11
f 61/29/9 65/29/9 64/32/9
f 69/29/2 66/6/2 67/45/2
f 64/32/11 68/32/11 67/45/11
f 65/29/9 69/29/9 68/32/9
f 63/45/10 67/45/10 66/6/10
