# Blender 5.1.1
# www.blender.org
mtllib Başlıksızz0044.mtl
o Cube
v 0.473036 1.044158 -1.636808
v 0.422687 0.414429 -0.761874
v 0.232845 1.440161 -1.365610
v 0.182495 0.810432 -0.490675
v -1.473100 0.036775 -1.889458
v -0.458000 0.079873 -1.053350
v -1.713291 0.432779 -1.618260
v -0.698191 0.475876 -0.782151
v -0.684069 0.652501 -1.027550
v 0.196617 0.987057 -0.736074
v -0.443878 0.256498 -1.298749
v 0.436809 0.591054 -1.007273
v -0.017657 0.247151 -0.907612
v -0.740223 0.936470 -1.491935
v -0.257848 0.643154 -0.636413
v -0.500032 0.540467 -1.763133
v 0.447787 0.728360 -1.198043
v -1.204235 0.454391 -1.198965
v 0.207595 1.124363 -0.926844
v -0.964044 0.058388 -1.470164
v -0.258129 0.393374 -1.334103
v -0.498320 0.789377 -1.062905
v -0.037676 0.726793 -0.563544
v -0.013498 0.792313 -1.699971
v 0.202515 0.330790 -0.834743
v -0.253689 1.188316 -1.428772
v -0.145362 0.956870 -0.994875
v 0.094829 0.560867 -1.266073
v 0.092429 0.288971 -0.871177
v -0.496956 1.062393 -1.460353
v -0.321841 0.873123 -1.028890
v -0.147762 0.684974 -0.599979
v -0.256765 0.666390 -1.731552
v -0.081650 0.477120 -1.300088
v -1.458763 0.443585 -1.408612
v 0.460412 0.886259 -1.417426
v 0.220220 1.282262 -1.146227
v -1.218572 0.047582 -1.679811
v -0.379080 0.466920 -1.548618
v -0.619271 0.862924 -1.277420
v -0.199526 1.072593 -1.211823
v 0.040666 0.676590 -1.483022
v -0.169207 0.571755 -1.515820
v -0.409398 0.967758 -1.244622
v -1.458763 0.443585 -1.408612
v 0.460412 0.886259 -1.417426
v 0.220220 1.282262 -1.146227
v -1.218572 0.047582 -1.679811
v -0.379080 0.466920 -1.548618
v -0.619271 0.862924 -1.277420
v -0.199526 1.072593 -1.211823
v 0.040666 0.676590 -1.483022
v -0.169207 0.571755 -1.515820
v -0.965881 1.434379 -0.886065
v -0.844930 1.360832 -0.671550
v -0.668451 1.444578 -0.637534
v -0.756008 1.539213 -0.853266
v -1.001852 1.493683 -0.845451
v -0.880900 1.420137 -0.630935
v -0.704421 1.503883 -0.596920
v -0.791979 1.598518 -0.812652
v -1.113821 1.678287 -0.719026
v -0.992870 1.604741 -0.504511
v -0.816391 1.688487 -0.470496
v -0.903949 1.783122 -0.686228
v -1.275886 1.945483 -0.536040
v -1.154934 1.871936 -0.321525
v -0.978456 1.955683 -0.287510
v -1.066013 2.050317 -0.503242
vn -0.1462 0.4970 -0.8553
vn -0.4475 0.7378 0.5053
vn -0.4523 -0.6742 0.5839
vn -0.0467 -0.5835 0.8107
vn 0.8931 0.3393 0.2956
vn 0.4475 -0.7378 -0.5053
vn 0.0467 0.5835 -0.8107
vn -0.2568 -0.6473 0.7177
vn 0.8236 0.5602 -0.0885
vn -0.7604 -0.6113 0.2192
vn 0.0868 -0.5265 0.8457
vn -0.1215 0.5096 -0.8518
vt 0.999428 0.678194
vt 0.833449 0.339097
vt 0.999428 0.339097
vt 0.594208 0.333132
vt 0.474004 0.575673
vt 0.528896 0.287837
vt 0.667470 0.000000
vt 0.833449 0.099130
vt 0.667470 0.099130
vt 0.833449 0.691646
vt 0.667470 0.617571
vt 0.833449 0.617571
vt 0.000000 0.666265
vt 0.165979 0.749946
vt 0.000000 0.749946
vt 0.297104 0.499699
vt 0.250054 0.666265
vt 0.222608 0.522347
vt 0.165979 0.666265
vt 0.331958 0.969450
vt 0.165979 0.969450
vt 0.140269 0.090592
vt 0.260473 0.333132
vt 0.195161 0.378428
vt 0.833449 0.543497
vt 0.667470 0.395348
vt 0.833449 0.395348
vt 0.612523 0.249849
vt 0.542619 0.215877
vt 0.999428 0.254323
vt 0.833449 0.254323
vt 0.472716 0.181905
vt 0.333735 0.152485
vt 0.333735 0.114364
vt 0.000000 0.361295
vt 0.129850 0.423724
vt 0.000000 0.513780
vt 0.000000 0.590023
vt 0.166373 0.666265
vt 0.000000 0.666265
vt 0.000000 0.833628
vt 0.165979 1.000000
vt 0.000000 1.000000
vt 0.667470 0.198260
vt 0.463585 0.242541
vt 0.333735 0.304969
vt 0.000000 0.551901
vt 0.148111 0.544995
vt 0.500108 0.000000
vt 0.333735 0.076242
vt 0.333735 0.000000
vt 0.999428 0.169549
vt 0.833449 0.000000
vt 0.999428 0.000000
vt 0.583789 0.000000
vt 0.630839 0.166566
vt 0.556343 0.143918
vt 0.208884 0.450387
vt 0.667470 0.580534
vt 0.833449 0.580534
vt 0.667470 0.543497
vt 0.278788 0.416416
vt 0.138981 0.484359
vt 0.481846 0.121270
vt 0.833449 0.169549
vt 0.093327 0.181184
vt 0.165979 0.833628
vt 0.833449 0.198260
vt 0.427063 0.485081
vt 0.833449 0.678194
vt 0.520945 0.666265
vt 0.833449 0.000000
vt 0.667470 0.691646
vt 0.165979 0.666265
vt 0.333735 0.666265
vt 0.331958 0.666265
vt 0.187210 0.000000
vt 0.667470 -0.000000
s 1
usemtl Material.001
f 5/1/1 14/2/1 16/3/1
f 14/4/2 35/5/2 40/6/2
f 7/7/3 38/8/3 35/9/3
f 2/10/4 23/11/4 25/12/4
f 1/13/5 37/14/5 36/15/5
f 24/16/6 36/17/6 42/18/6
f 10/19/7 11/20/7 9/21/7
f 38/22/6 16/23/6 39/24/6
f 13/25/4 8/26/8 6/27/8
f 30/28/2 40/6/2 44/29/2
f 33/30/1 14/2/1 30/31/1
f 31/32/2 15/33/2 32/34/2
f 6/35/6 21/36/6 13/37/6
f 25/38/6 17/39/6 2/40/6
f 17/41/5 4/42/5 2/43/5
f 18/44/3 6/27/8 8/26/8
f 22/45/2 8/46/2 15/33/2
f 29/47/6 28/48/6 25/38/6
f 19/49/2 23/50/2 4/51/2
f 24/52/1 3/53/1 1/54/1
f 37/55/2 26/56/2 41/57/2
f 43/58/6 24/16/6 42/18/6
f 25/12/4 32/59/4 29/60/4
f 29/60/4 15/61/4 13/25/4
f 39/24/6 33/62/6 43/58/6
f 13/37/6 34/63/6 29/47/6
f 27/64/2 32/34/2 23/50/2
f 24/52/1 30/31/1 26/65/1
f 26/56/2 44/29/2 41/57/2
f 41/57/2 31/32/2 27/64/2
f 21/36/6 43/58/6 34/63/6
f 34/63/6 42/18/6 28/48/6
f 19/49/2 41/57/2 27/64/2
f 44/29/9 56/32/9 31/32/9
f 20/66/6 39/24/6 21/36/6
f 42/18/6 17/39/6 28/48/6
f 36/15/5 19/67/5 17/41/5
f 35/9/3 20/68/3 18/44/3
f 40/6/2 18/69/2 22/45/2
f 42/18/7 53/58/7 52/18/7
f 35/5/7 50/6/7 45/5/7
f 37/14/7 46/15/7 47/14/7
f 39/24/7 48/22/7 49/24/7
f 41/57/7 47/55/7 51/57/7
f 43/58/7 49/24/7 53/58/7
f 38/8/7 45/9/7 48/8/7
f 36/17/7 52/18/7 46/17/7
f 57/29/9 60/32/9 56/32/9
f 22/45/10 54/6/10 40/6/10
f 31/32/11 55/45/11 22/45/11
f 40/6/12 57/29/12 44/29/12
f 59/45/10 62/6/10 58/6/10
f 55/45/10 58/6/10 54/6/10
f 54/6/12 61/29/12 57/29/12
f 56/32/11 59/45/11 55/45/11
f 62/6/12 69/29/12 65/29/12
f 58/6/12 65/29/12 61/29/12
f 60/32/11 63/45/11 59/45/11
f 61/29/9 64/32/9 60/32/9
f 69/29/2 67/45/2 68/32/2
f 64/32/11 67/45/11 63/45/11
f 65/29/9 68/32/9 64/32/9
f 63/45/10 66/6/10 62/6/10
f 5/1/1 7/70/1 14/2/1
f 14/4/2 7/71/2 35/5/2
f 7/7/3 5/72/3 38/8/3
f 2/10/4 4/73/4 23/11/4
f 1/13/5 3/74/5 37/14/5
f 24/16/6 1/75/6 36/17/6
f 10/19/7 12/76/7 11/20/7
f 38/22/6 5/77/6 16/23/6
f 13/25/4 15/61/4 8/26/8
f 30/28/2 14/4/2 40/6/2
f 33/30/1 16/3/1 14/2/1
f 31/32/2 22/45/2 15/33/2
f 6/35/6 20/66/6 21/36/6
f 25/38/6 28/48/6 17/39/6
f 17/41/5 19/67/5 4/42/5
f 18/44/3 20/68/3 6/27/8
f 22/45/2 18/69/2 8/46/2
f 29/47/6 34/63/6 28/48/6
f 19/49/2 27/64/2 23/50/2
f 24/52/1 26/65/1 3/53/1
f 37/55/2 3/78/2 26/56/2
f 43/58/6 33/62/6 24/16/6
f 25/12/4 23/11/4 32/59/4
f 29/60/4 32/59/4 15/61/4
f 39/24/6 16/23/6 33/62/6
f 13/37/6 21/36/6 34/63/6
f 27/64/2 31/32/2 32/34/2
f 24/52/1 33/30/1 30/31/1
f 26/56/2 30/28/2 44/29/2
f 41/57/2 44/29/2 31/32/2
f 21/36/6 39/24/6 43/58/6
f 34/63/6 43/58/6 42/18/6
f 19/49/2 37/55/2 41/57/2
f 44/29/9 57/29/9 56/32/9
f 20/66/6 38/22/6 39/24/6
f 42/18/6 36/17/6 17/39/6
f 36/15/5 37/14/5 19/67/5
f 35/9/3 38/8/3 20/68/3
f 40/6/2 35/5/2 18/69/2
f 42/18/7 43/58/7 53/58/7
f 35/5/7 40/6/7 50/6/7
f 37/14/7 36/15/7 46/15/7
f 39/24/7 38/22/7 48/22/7
f 41/57/7 37/55/7 47/55/7
f 43/58/7 39/24/7 49/24/7
f 38/8/7 35/9/7 45/9/7
f 36/17/7 42/18/7 52/18/7
f 57/29/9 61/29/9 60/32/9
f 22/45/10 55/45/10 54/6/10
f 31/32/11 56/32/11 55/45/11
f 40/6/12 54/6/12 57/29/12
f 59/45/10 63/45/10 62/6/10
f 55/45/10 59/45/10 58/6/10
f 54/6/12 58/6/12 61/29/12
f 56/32/11 60/32/11 59/45/11
f 62/6/12 66/6/12 69/29/12
f 58/6/12 62/6/12 65/29/12
f 60/32/11 64/32/11 63/45/11
f 61/29/9 65/29/9 64/32/9
f 69/29/2 66/6/2 67/45/2
f 64/32/11 68/32/11 67/45/11
f 65/29/9 69/29/9 68/32/9
f 63/45/10 67/45/10 66/6/10
