# Blender 5.1.1
# www.blender.org
mtllib Başlıksızz0042.mtl
o Cube
v 0.516317 0.993075 -1.655412
v 0.442481 0.390007 -0.763526
v 0.271315 1.397825 -1.402014
v 0.197480 0.794757 -0.510128
v -1.427293 -0.014903 -1.924588
v -0.432329 0.049820 -1.065973
v -1.672295 0.389847 -1.671190
v -0.677331 0.454570 -0.812575
v -0.656622 0.623717 -1.062729
v 0.218189 0.963904 -0.760282
v -0.411620 0.218967 -1.316127
v 0.463191 0.559154 -1.013680
v 0.005076 0.219913 -0.914750
v -0.700490 0.893836 -1.536602
v -0.239926 0.624663 -0.661352
v -0.455488 0.489086 -1.790000
v 0.479290 0.690646 -1.208146
v -1.173337 0.422304 -1.240609
v 0.234288 1.095396 -0.954748
v -0.928335 0.017554 -1.494007
v -0.224523 0.354100 -1.351076
v -0.469524 0.758850 -1.097678
v -0.021223 0.709710 -0.585740
v 0.030415 0.741081 -1.722706
v 0.223779 0.304960 -0.839138
v -0.214587 1.145831 -1.469308
v -0.117618 0.927123 -1.026213
v 0.127384 0.522373 -1.279611
v 0.114428 0.262437 -0.876944
v -0.457538 1.019833 -1.502955
v -0.293571 0.842987 -1.061946
v -0.130574 0.667187 -0.623546
v -0.212537 0.615083 -1.756353
v -0.048569 0.438237 -1.315344
v -1.422816 0.406075 -1.455899
v 0.497804 0.841861 -1.431779
v 0.252802 1.246611 -1.178381
v -1.177814 0.001325 -1.709298
v -0.340005 0.421593 -1.570538
v -0.585007 0.826343 -1.317140
v -0.166103 1.036477 -1.247761
v 0.078899 0.631727 -1.501159
v -0.130553 0.526660 -1.535849
v -0.375555 0.931410 -1.282451
v -1.422816 0.406075 -1.455899
v 0.497804 0.841861 -1.431779
v 0.252802 1.246611 -1.178381
v -1.177814 0.001325 -1.709298
v -0.340005 0.421593 -1.570538
v -0.585007 0.826343 -1.317140
v -0.166103 1.036477 -1.247761
v 0.078899 0.631727 -1.501159
v -0.130553 0.526660 -1.535849
v -0.938559 1.410421 -0.951473
v -0.823076 1.342928 -0.732011
v -0.647123 1.427064 -0.696278
v -0.729107 1.515488 -0.916783
v -0.975250 1.471035 -0.913524
v -0.859767 1.403542 -0.694062
v -0.683814 1.487679 -0.658330
v -0.765797 1.576102 -0.878834
v -1.089462 1.659717 -0.795398
v -0.973979 1.592224 -0.575936
v -0.798026 1.676360 -0.540204
v -0.880010 1.764784 -0.760708
v -1.254772 1.932814 -0.624423
v -1.139289 1.865321 -0.404961
v -0.963336 1.949457 -0.369228
v -1.045320 2.037881 -0.589733
vn -0.1237 0.4717 -0.8730
vn -0.4565 0.7541 0.4721
vn -0.4689 -0.6549 0.5927
vn -0.0684 -0.5588 0.8265
vn 0.8871 0.3450 0.3067
vn 0.4565 -0.7541 -0.4721
vn 0.0684 0.5588 -0.8265
vn -0.2765 -0.6246 0.7303
vn 0.8278 0.5545 -0.0854
vn -0.7679 -0.6019 0.2190
vn 0.0644 -0.5012 0.8629
vn -0.0990 0.4843 -0.8693
vt 0.999428 0.678194
vt 0.833449 0.339097
vt 0.999428 0.339097
vt 0.594208 0.333132
vt 0.474004 0.575673
vt 0.528896 0.287837
vt 0.667470 0.000000
vt 0.833449 0.099130
vt 0.667470 0.099130
vt 0.833449 0.691646
vt 0.667470 0.617571
vt 0.833449 0.617571
vt 0.000000 0.666265
vt 0.165979 0.749946
vt 0.000000 0.749946
vt 0.297104 0.499699
vt 0.250054 0.666265
vt 0.222608 0.522347
vt 0.165979 0.666265
vt 0.331958 0.969450
vt 0.165979 0.969450
vt 0.140269 0.090592
vt 0.260473 0.333132
vt 0.195161 0.378428
vt 0.833449 0.543497
vt 0.667470 0.395348
vt 0.833449 0.395348
vt 0.612523 0.249849
vt 0.542619 0.215877
vt 0.999428 0.254323
vt 0.833449 0.254323
vt 0.472716 0.181905
vt 0.333735 0.152485
vt 0.333735 0.114364
vt 0.000000 0.361295
vt 0.129850 0.423724
vt 0.000000 0.513780
vt 0.000000 0.590023
vt 0.166373 0.666265
vt 0.000000 0.666265
vt 0.000000 0.833628
vt 0.165979 1.000000
vt 0.000000 1.000000
vt 0.667470 0.198260
vt 0.463585 0.242541
vt 0.333735 0.304969
vt 0.000000 0.551901
vt 0.148111 0.544995
vt 0.500108 0.000000
vt 0.333735 0.076242
vt 0.333735 0.000000
vt 0.999428 0.169549
vt 0.833449 0.000000
vt 0.999428 0.000000
vt 0.583789 0.000000
vt 0.630839 0.166566
vt 0.556343 0.143918
vt 0.208884 0.450387
vt 0.667470 0.580534
vt 0.833449 0.580534
vt 0.667470 0.543497
vt 0.278788 0.416416
vt 0.138981 0.484359
vt 0.481846 0.121270
vt 0.833449 0.169549
vt 0.093327 0.181184
vt 0.165979 0.833628
vt 0.833449 0.198260
vt 0.427063 0.485081
vt 0.833449 0.678194
vt 0.520945 0.666265
vt 0.833449 0.000000
vt 0.667470 0.691646
vt 0.165979 0.666265
vt 0.333735 0.666265
vt 0.331958 0.666265
vt 0.187210 0.000000
vt 0.667470 -0.000000
s 1
usemtl Material.001
f 5/1/1 14/2/1 16/3/1
f 14/4/2 35/5/2 40/6/2
f 7/7/3 38/8/3 35/9/3
f 2/10/4 23/11/4 25/12/4
f 1/13/5 37/14/5 36/15/5
f 24/16/6 36/17/6 42/18/6
f 10/19/7 11/20/7 9/21/7
f 38/22/6 16/23/6 39/24/6
f 13/25/4 8/26/8 6/27/8
f 30/28/2 40/6/2 44/29/2
f 33/30/1 14/2/1 30/31/1
f 31/32/2 15/33/2 32/34/2
f 6/35/6 21/36/6 13/37/6
f 25/38/6 17/39/6 2/40/6
f 17/41/5 4/42/5 2/43/5
f 18/44/3 6/27/8 8/26/8
f 22/45/2 8/46/2 15/33/2
f 29/47/6 28/48/6 25/38/6
f 19/49/2 23/50/2 4/51/2
f 24/52/1 3/53/1 1/54/1
f 37/55/2 26/56/2 41/57/2
f 43/58/6 24/16/6 42/18/6
f 25/12/4 32/59/4 29/60/4
f 29/60/4 15/61/4 13/25/4
f 39/24/6 33/62/6 43/58/6
f 13/37/6 34/63/6 29/47/6
f 27/64/2 32/34/2 23/50/2
f 24/52/1 30/31/1 26/65/1
f 26/56/2 44/29/2 41/57/2
f 41/57/2 31/32/2 27/64/2
f 21/36/6 43/58/6 34/63/6
f 34/63/6 42/18/6 28/48/6
f 19/49/2 41/57/2 27/64/2
f 44/29/9 56/32/9 31/32/9
f 20/66/6 39/24/6 21/36/6
f 42/18/6 17/39/6 28/48/6
f 36/15/5 19/67/5 17/41/5
f 35/9/3 20/68/3 18/44/3
f 40/6/2 18/69/2 22/45/2
f 42/18/7 53/58/7 52/18/7
f 35/5/7 50/6/7 45/5/7
f 37/14/7 46/15/7 47/14/7
f 39/24/7 48/22/7 49/24/7
f 41/57/7 47/55/7 51/57/7
f 43/58/7 49/24/7 53/58/7
f 38/8/7 45/9/7 48/8/7
f 36/17/7 52/18/7 46/17/7
f 57/29/9 60/32/9 56/32/9
f 22/45/10 54/6/10 40/6/10
f 31/32/11 55/45/11 22/45/11
f 40/6/12 57/29/12 44/29/12
f 59/45/10 62/6/10 58/6/10
f 55/45/10 58/6/10 54/6/10
f 54/6/12 61/29/12 57/29/12
f 56/32/11 59/45/11 55/45/11
f 62/6/12 69/29/12 65/29/12
f 58/6/12 65/29/12 61/29/12
f 60/32/11 63/45/11 59/45/11
f 61/29/9 64/32/9 60/32/9
f 69/29/2 67/45/2 68/32/2
f 64/32/11 67/45/11 63/45/11
f 65/29/9 68/32/9 64/32/9
f 63/45/10 66/6/10 62/6/10
f 5/1/1 7/70/1 14/2/1
f 14/4/2 7/71/2 35/5/2
f 7/7/3 5/72/3 38/8/3
f 2/10/4 4/73/4 23/11/4
f 1/13/5 3/74/5 37/14/5
f 24/16/6 1/75/6 36/17/6
f 10/19/7 12/76/7 11/20/7
f 38/22/6 5/77/6 16/23/6
f 13/25/4 15/61/4 8/26/8
f 30/28/2 14/4/2 40/6/2
f 33/30/1 16/3/1 14/2/1
f 31/32/2 22/45/2 15/33/2
f 6/35/6 20/66/6 21/36/6
f 25/38/6 28/48/6 17/39/6
f 17/41/5 19/67/5 4/42/5
f 18/44/3 20/68/3 6/27/8
f 22/45/2 18/69/2 8/46/2
f 29/47/6 34/63/6 28/48/6
f 19/49/2 27/64/2 23/50/2
f 24/52/1 26/65/1 3/53/1
f 37/55/2 3/78/2 26/56/2
f 43/58/6 33/62/6 24/16/6
f 25/12/4 23/11/4 32/59/4
f 29/60/4 32/59/4 15/61/4
f 39/24/6 16/23/6 33/62/6
f 13/37/6 21/36/6 34/63/6
f 27/64/2 31/32/2 32/34/2
f 24/52/1 33/30/1 30/31/1
f 26/56/2 30/28/2 44/29/2
f 41/57/2 44/29/2 31/32/2
f 21/36/6 39/24/6 43/58/6
f 34/63/6 43/58/6 42/18/6
f 19/49/2 37/55/2 41/57/2
f 44/29/9 57/29/9 56/32/9
f 20/66/6 38/22/6 39/24/6
f 42/18/6 36/17/6 17/39/6
f 36/15/5 37/14/5 19/67/5
f 35/9/3 38/8/3 20/68/3
f 40/6/2 35/5/2 18/69/2
f 42/18/7 43/58/7 53/58/7
f 35/5/7 40/6/7 50/6/7
f 37/14/7 36/15/7 46/15/7
f 39/24/7 38/22/7 48/22/7
f 41/57/7 37/55/7 47/55/7
f 43/58/7 39/24/7 49/24/7
f 38/8/7 35/9/7 45/9/7
f 36/17/7 42/18/7 52/18/7
f 57/29/9 61/29/9 60/32/9
f 22/45/10 55/45/10 54/6/10
f 31/32/11 56/32/11 55/45/11
f 40/6/12 54/6/12 57/29/12
f 59/45/10 63/45/10 62/6/10
f 55/45/10 59/45/10 58/6/10
f 54/6/12 58/6/12 61/29/12
f 56/32/11 60/32/11 59/45/11
f 62/6/12 66/6/12 69/29/12
f 58/6/12 62/6/12 65/29/12
f 60/32/11 64/32/11 63/45/11
f 61/29/9 65/29/9 64/32/9
f 69/29/2 66/6/2 67/45/2
f 64/32/11 68/32/11 67/45/11
f 65/29/9 69/29/9 68/32/9
f 63/45/10 67/45/10 66/6/10
